<?xml version="1.0" encoding="utf-8"?>
<!-- Uploaded to: SVG Repo, www.svgrepo.com, Generator: SVG Repo Mixer Tools -->
<svg width="800px" height="800px" viewBox="0 0 1024 1024" class="icon"  version="1.1" xmlns="http://www.w3.org/2000/svg"><path d="M511.99488 512.00512m-452.1472 0a452.1472 452.1472 0 1 0 904.2944 0 452.1472 452.1472 0 1 0-904.2944 0Z" fill="#00DFD5" /><path d="M512 973.48608c-254.46912 0-461.4912-207.01184-461.4912-461.48608S257.53088 50.51392 512 50.51392 973.4912 257.52576 973.4912 512 766.46912 973.48608 512 973.48608z m0-904.2944c-244.16256 0-442.8032 198.64576-442.8032 442.80832S267.83744 954.80832 512 954.80832s442.8032-198.64576 442.8032-442.80832S756.16256 69.19168 512 69.19168z" fill="#6C0000" /><path d="M154.60864 223.81056h714.7776v24.6016H154.60864zM76.91776 356.75136h870.15936v24.6016H76.91776zM56.19712 489.69216h911.59552v24.6016H56.19712zM136.47872 754.95424h751.03232v25.85088H136.47872zM76.91776 622.63296h870.15936v24.6016H76.91776z" fill="#6C0000" /><path d="M316.26752 504.51456m-115.16928 0a115.16928 115.16928 0 1 0 230.33856 0 115.16928 115.16928 0 1 0-230.33856 0Z" fill="#ECF3FE" /><path d="M316.26752 629.02272c-68.65408 0-124.51328-55.84384-124.51328-124.50816S247.61344 380.0064 316.26752 380.0064 440.7808 435.85536 440.7808 504.51968s-55.8592 124.50304-124.51328 124.50304z m0-230.33856c-58.35264 0-105.82528 47.47776-105.82528 105.8304s47.47264 105.8304 105.82528 105.8304 105.82528-47.47776 105.82528-105.8304-47.47264-105.8304-105.82528-105.8304z" fill="#6C0000" /><path d="M351.01696 410.45504c32.76288 16.78848 46.63296 56.04352 42.27072 95.15008-9.5232 85.34016-110.50496 94.54592-120.6272 91.15136a100.90496 100.90496 0 0 0 46.13632 11.12064c55.97184 0 101.34016-45.37344 101.34016-101.34016 0-44.70272-28.9536-82.61632-69.12-96.08192z" fill="#BED5E9" /></svg>